
<svg width="181px" height="168px" viewBox="0 0 181 168" version="1.1" xmlns="http://www.w3.org/2000/svg" xmlns:xlink="http://www.w3.org/1999/xlink">
    <!-- Generator: Sketch 45.1 (43504) - http://www.bohemiancoding.com/sketch -->
    <desc>Created with Sketch.</desc>
    <defs></defs>
    <g id="Page-1" stroke="none" stroke-width="1" fill="none" fill-rule="evenodd">
        <g id="Group">
            <ellipse id="Oval-3" fill="#744923" cx="66.5" cy="27.5" rx="19.5" ry="27.5"></ellipse>
            <circle id="Oval" fill="#F4D5BA" cx="66.5" cy="23.5" r="17.5"></circle>
            <path d="M67,133.464844 C77.4934102,133.464844 86,112.765883 86,87.2324219 C86,61.6989603 77.4934102,41 67,41 C56.5065898,41 48,61.6989603 48,87.2324219 C48,112.765883 56.5065898,133.464844 67,133.464844 Z" id="Oval-2" fill="#7CE172"></path>
            <rect id="Rectangle" fill="#2A25B2" x="48" y="95" width="16" height="73" rx="8"></rect>
            <rect id="Rectangle" fill="#2A25B2" x="69" y="95" width="16" height="73" rx="8"></rect>
            <rect id="Rectangle-2" fill="#2A25B2" x="57" y="95" width="19" height="37.5400009"></rect>
            <rect id="Rectangle-3" fill="#7CE172" transform="translate(46.483250, 60.731960) rotate(-49.000000) translate(-46.483250, -60.731960) " x="28.9832499" y="56.0522077" width="35" height="9.35950461" rx="4.6797523"></rect>
            <rect id="Rectangle-3" fill="#7CE172" transform="translate(90.012887, 60.277611) rotate(49.000000) translate(-90.012887, -60.277611) " x="72.5128869" y="55.5978591" width="35" height="9.35950461" rx="4.6797523"></rect>
            <rect id="Rectangle-3" fill="#7CE172" transform="translate(28.277611, 63.012887) rotate(41.000000) translate(-28.277611, -63.012887) " x="10.7776114" y="58.3331346" width="35" height="9.35950461" rx="4.6797523"></rect>
            <rect id="Rectangle-3" fill="#7CE172" transform="translate(115.277611, 68.012887) rotate(-8.000000) translate(-115.277611, -68.012887) " x="97.7776114" y="63.3331346" width="35" height="9.35950461" rx="4.6797523"></rect>
            <circle id="Oval-4" fill="#553417" cx="60.5" cy="21.5" r="2.5"></circle>
            <circle id="Oval-4" fill="#553417" cx="72.5" cy="21" r="2.5"></circle>
            <path d="M63.2773438,29.9648438 C66.5623354,32.9718087 69.3264404,35.0324419 71.0820312,29.8007812" id="Path-6" stroke="#979797"></path>
            <path d="M2,35.5703125 C4.42334542,47.6491748 10.2559513,47.0352572 9.828125,33" id="Path-7" stroke="#504D4D" transform="translate(5.925227, 38.557186) rotate(-15.000000) translate(-5.925227, -38.557186) "></path>
            <path d="M8,32 C8.64583333,35.5833333 9.29166667,39.1666667 9.9375,42.75" id="Path-8" stroke="#504D4D" transform="translate(8.968750, 37.375000) rotate(-15.000000) translate(-8.968750, -37.375000) "></path>
            <path d="M5,32 C5.8125,35.9049479 6.625,39.8098958 7.4375,43.7148438" id="Path-9" stroke="#504D4D" transform="translate(6.218750, 37.857422) rotate(-15.000000) translate(-6.218750, -37.857422) "></path>
            <path d="M14,42 C14.6757812,45.7630208 15.3515625,49.5260417 16.0273438,53.2890625" id="Path-10" stroke="#979797" transform="translate(15.013672, 47.644531) rotate(-32.000000) translate(-15.013672, -47.644531) "></path>
            <ellipse id="Oval-5" fill="#ABA9A9" cx="147.777611" cy="60" rx="32.5" ry="8"></ellipse>
            <ellipse id="Oval-6" fill="#E11B1B" cx="152.5" cy="56.5" rx="19.5" ry="2.5"></ellipse>
            <ellipse id="Oval-6" fill="#E11B1B" cx="139.777611" cy="57.5" rx="19.5" ry="2.5"></ellipse>
            <path d="M135.723185,58.7756303 C109.310486,59.7126385 147.067165,61.7903876 139.375529,65.6824137 C135.331802,67.7285698 128.953749,63.1809539 131.313029,61.001124 C133.860137,58.6477517 140.139048,60.0246808 143.316935,59.5759871 C143.825701,59.5041532 143.83822,58.6316576 143.316935,58.6593391 L134.609904,57.4074988 C133.30801,57.4766325 136.209712,58.7823769 137.477091,58.9694489 C142.204667,59.6672646 147.131932,60.0884339 152.004435,59.9750255 C152.925314,59.9535918 153.324467,59.131065 153.445841,58.5977732 C153.63054,57.7862455 153.530624,56.8874274 152.871622,56.1647795 C150.087911,53.1122196 138.846386,55.2895933 142.340372,60.1825254 C143.281862,61.5009754 150.651572,61.03491 148.941935,62.0568655 C146.608473,63.4517199 141.920972,61.3600843 138.92631,62.2233215 C126.90685,65.6880339 129.759467,66.9371368 149.734904,65.6231281 C150.882386,65.5476453 152.392951,64.4109679 151.602091,63.9198044 C144.999589,59.8193227 141.399991,68.7445679 155.000529,62.9096674 C156.590804,62.2274076 153.389181,59.7840483 155.281779,59.4574158 L153.609904,57.0882682 C158.540835,56.2372669 163.996553,57.6808828 169.035685,57.0837077 C172.559676,56.6660883 175.166709,55.3102455 162.996622,53.6884616 C159.537247,53.2274657 155.473087,52.2607795 152.375529,53.2711815 C136.091656,58.5828678 196.804012,65.5053854 149.102091,62.9119476 C146.949755,62.7949303 145.431747,61.4846894 143.33256,61.1835416 C140.495925,60.7766001 137.340522,61.4047751 134.590372,60.8301076 C132.457293,60.3843822 141.431212,57.3349413 144.633341,58.1782129 C146.224483,58.5972355 149.63983,60.6426441 147.898966,60.5678824 C145.426785,60.4617142 133.277796,53.6522405 134.422404,53.0728024 C138.493438,51.0119105 145.218865,53.1983105 150.563029,53.6018132 C151.741126,53.6907636 152.887645,54.0555602 153.750529,54.5321426 C155.91446,55.727312 157.099993,57.4926301 159.48881,58.5316468 C160.412847,58.9335571 162.138343,59.0115344 162.945841,58.5316468 C163.767938,58.0430833 163.538115,57.0683173 162.945841,56.4771695 C160.520934,54.0568742 149.54595,50.7290624 144.840372,52.641841 C138.465723,55.2330835 145.421573,59.3930337 141.316935,59.824531 C133.466407,60.6498124 136.465369,55.2360838 127.453654,57.2615648 C126.571331,57.4598765 127.433289,59.2059234 126.699747,58.8577181 C124.314839,57.7256242 121.387955,56.2163653 121.473185,54.4226921 C121.527024,53.2896246 124.929994,55.5575691 126.848185,55.7338181 C129.776968,56.0029232 132.850411,56.1143094 135.742716,55.7338181 C136.450117,55.6407574 136.94208,54.3860786 136.242716,54.4979393 L131.883341,53.3692309 C130.910538,53.5248273 132.000346,55.2897939 132.906779,55.0315106 L136.035685,55.0315106 C137.969171,54.4805737 130.884297,53.1853317 129.563029,55.1204391 C128.098772,57.2649652 128.670286,59.9244949 126.324747,61.7832392 C125.26401,62.6238304 122.580718,62.3819112 120.965372,61.9337336 C120.038519,61.6765781 119.598207,59.846707 120.473185,60.1597232 L126.188029,59.3981301 C128.407861,60.1922572 127.765812,62.4587592 129.715372,63.4660408 C130.729483,63.9900025 132.429018,63.4258608 133.77006,63.3155464 L140.92631,60.5268385 C144.44785,60.2371558 147.944355,62.4787774 151.344279,61.8698875 C153.607877,61.4645013 153.036588,59.2604031 154.371622,58.1189272 C154.974347,57.6035883 155.93528,57.1317386 156.992716,57.0403836 C159.671927,56.8089186 162.940513,56.2474291 165.11381,57.190878 C166.484856,57.7860621 165.483368,59.5424873 164.094279,60.1232397 C162.567215,60.7616764 159.98236,60.6170354 158.465372,59.970465 C153.721238,57.9484201 164.347583,54.0515019 165.80131,58.0642019 C166.296743,59.43174 164.237917,61.090997 165.563029,62.2552445 C166.519669,63.0957521 169.054803,62.6236463 170.742716,62.405739 C171.560828,62.3001219 172.426084,61.8460762 172.504435,61.3591184 C174.248641,50.5187517 152.52006,70.5127689 152.52006,59.1723884" id="Path-16" stroke="#F4E036"></path>
            <ellipse id="Oval-7" fill="#6C4421" cx="156.5" cy="58" rx="6.5" ry="5"></ellipse>
            <ellipse id="Oval-7" fill="#6C4421" cx="142" cy="56" rx="6" ry="5"></ellipse>
            <ellipse id="Oval-7" fill="#6C4421" cx="133" cy="57" rx="6" ry="5"></ellipse>
            <ellipse id="Oval-8" fill="#080505" cx="56" cy="162.5" rx="9" ry="5.5"></ellipse>
            <ellipse id="Oval-8" fill="#080505" cx="77" cy="162.5" rx="9" ry="5.5"></ellipse>
            <path d="" id="Path-17" stroke="#979797"></path>
            <path d="M54.1702715,11.9752573 C48.8726312,15.8590424 51.3817451,17.2431675 61.1565755,11.9752573 C62.9364827,11.016019 66.0783996,8.54372517 70.5823261,4.55837573 L85.2415931,11.9752573 C89.7395109,12.3681376 88.7366273,12.3681376 82.2329423,11.9752573 C75.7292572,11.5823769 68.7038016,8.02421826 61.1565755,1.30078125 L49,10.1272475 C59.1914657,6.41466633 60.9148896,7.03066958 54.1702715,11.9752573 Z" id="Path-18" fill="#744923"></path>
            <ellipse id="Oval-9" fill="#F4D5BA" cx="67" cy="43.5" rx="7" ry="3.5"></ellipse>
        </g>
    </g>
</svg>
